<?xml version="1.0" encoding="UTF-8"?>
<!-- Generator: Adobe Illustrator 19.1.0, SVG Export Plug-In . SVG Version: 6.00 Build 0)  -->
<svg xmlns="http://www.w3.org/2000/svg" xmlns:xlink="http://www.w3.org/1999/xlink" xmlns:dc="http://purl.org/dc/elements/1.1/" xmlns:cc="http://creativecommons.org/ns#" xmlns:rdf="http://www.w3.org/1999/02/22-rdf-syntax-ns#" version="1.1" id="DESIGNS" x="0px" y="0px" width="32px" height="32px" viewBox="0 0 32 32" style="enable-background:new 0 0 32 32;" xml:space="preserve">
<title property="dc:title">to explore</title><desc property="dc:description">An icon for "explore" from the Sharp Corners series on to [icon]. Downloaded from http://www.toicon.com/icons/sharp-corners_explore by 71.198.224.222 on 2016-05-26. Licensed CC-BY, see http://toicon.com/license/ for details.</desc>
<path class="sharpcorners_een" d="M22,29v2H10v-2H22z M16,22c5.523,0,10-4.477,10-10c0-5.523-4.477-10-10-10S6,6.477,6,12  C6,17.523,10.477,22,16,22z M28.557,8.635c-0.899-3.354-3.05-6.157-6.057-7.894l-1,1.732c2.544,1.469,4.365,3.841,5.125,6.679  c0.76,2.838,0.37,5.802-1.1,8.347c-1.469,2.545-3.841,4.365-6.679,5.125c-2.838,0.76-5.803,0.37-8.347-1.1l-1,1.732  c1.712,0.988,3.586,1.537,5.5,1.683V26h-2l-1,2h8l-1-2h-2v-1.062c0.791-0.063,1.582-0.171,2.365-0.381  c3.354-0.899,6.157-3.05,7.894-6.057S29.456,11.989,28.557,8.635z" style="fill: #111918;"/>
<metadata><work rdf:about=""><format>image/svg+xml</format><type rdf:resource="http://purl.org/dc/dcmitype/StillImage"/><license rdf:resource="http://creativecommons.org/licenses/by/4.0/"/><attributionname>Shannon E Thomas</attributionname><attributionurl>http://www.toicon.com/icons/sharp-corners_explore</attributionurl></work></metadata></svg>
