<?xml version="1.0" encoding="UTF-8"?>
<!-- Generator: Adobe Illustrator 19.1.0, SVG Export Plug-In . SVG Version: 6.00 Build 0)  -->
<svg xmlns="http://www.w3.org/2000/svg" xmlns:xlink="http://www.w3.org/1999/xlink" xmlns:dc="http://purl.org/dc/elements/1.1/" xmlns:cc="http://creativecommons.org/ns#" xmlns:rdf="http://www.w3.org/1999/02/22-rdf-syntax-ns#" version="1.1" id="DESIGNS" x="0px" y="0px" width="32px" height="32px" viewBox="0 0 32 32" style="enable-background:new 0 0 32 32;" xml:space="preserve">
<title property="dc:title">to eat</title><desc property="dc:description">An icon for "eat" from the Sharp Corners series on to [icon]. Downloaded from http://www.toicon.com/icons/sharp-corners_eat by 71.198.224.222 on 2016-05-26. Licensed CC-BY, see http://toicon.com/license/ for details.</desc>
<path class="sharpcorners_een" d="M11,8h-1V2H9v6H8V2H7v6H6V2H5v8c0,1.304,0.837,2.403,2,2.816V30h3V12.816  c1.163-0.413,2-1.512,2-2.816V2h-1V8z M9,29H8v-1h1V29z M13,20h1v10h3V20V2C13,2,13,12,13,20z M16,29h-1v-1h1V29z M22.545,2h-0.09  C19.995,2,18,3.995,18,6.455V9c0,1.862,1.278,3.412,3,3.859V30h3V12.859c1.722-0.446,3-1.997,3-3.859V6.455  C27,3.995,25.005,2,22.545,2z M23,29h-1v-1h1V29z" style="fill: #111918;"/>
<metadata><work rdf:about=""><format>image/svg+xml</format><type rdf:resource="http://purl.org/dc/dcmitype/StillImage"/><license rdf:resource="http://creativecommons.org/licenses/by/4.0/"/><attributionname>Shannon E Thomas</attributionname><attributionurl>http://www.toicon.com/icons/sharp-corners_eat</attributionurl></work></metadata></svg>
