<?xml version="1.0" encoding="UTF-8"?>
<!-- Generator: Adobe Illustrator 19.2.1, SVG Export Plug-In . SVG Version: 6.00 Build 0)  -->
<svg xmlns="http://www.w3.org/2000/svg" xmlns:xlink="http://www.w3.org/1999/xlink" xmlns:dc="http://purl.org/dc/elements/1.1/" xmlns:cc="http://creativecommons.org/ns#" xmlns:rdf="http://www.w3.org/1999/02/22-rdf-syntax-ns#" version="1.1" id="DESIGNS" x="0px" y="0px" width="32px" height="32px" viewBox="0 0 32 32" style="enable-background:new 0 0 32 32;" xml:space="preserve">
<title property="dc:title">to home</title><desc property="dc:description">An icon for "home" from the Stone series on to [icon]. Downloaded from http://www.toicon.com/icons/stone_home by 71.198.224.222 on 2016-05-26. Licensed CC-BY, see http://toicon.com/license/ for details.</desc>
<path class="stone_een" d="M18,22h4v9h-4V22z M10,18h4v-4h-4V18z M10,26h4v-4h-4V26z M18,18h4v-4h-4V18z M27,12.422V28  c0,1.657-1.343,3-3,3h-1v-9c0-0.552-0.448-1-1-1h-4c-0.552,0-1,0.448-1,1v9H8c-1.657,0-3-1.343-3-3V12.422  c0-0.9,0.404-1.752,1.1-2.322L7,9.364V3c0-0.552,0.448-1,1-1h3c0.552,0,1,0.448,1,1v2.273l3.367-2.755  C15.551,2.367,15.775,2.292,16,2.292s0.449,0.075,0.633,0.226L25.9,10.1C26.596,10.67,27,11.522,27,12.422z M15,22  c0-0.552-0.448-1-1-1h-4c-0.552,0-1,0.448-1,1v4c0,0.552,0.448,1,1,1h4c0.552,0,1-0.448,1-1V22z M15,14c0-0.552-0.448-1-1-1h-4  c-0.552,0-1,0.448-1,1v4c0,0.552,0.448,1,1,1h4c0.552,0,1-0.448,1-1V14z M23,14c0-0.552-0.448-1-1-1h-4c-0.552,0-1,0.448-1,1v4  c0,0.552,0.448,1,1,1h4c0.552,0,1-0.448,1-1V14z" style="fill: #0B1719;"/>
<metadata><work rdf:about=""><format>image/svg+xml</format><type rdf:resource="http://purl.org/dc/dcmitype/StillImage"/><license rdf:resource="http://creativecommons.org/licenses/by/4.0/"/><attributionname>Shannon E Thomas</attributionname><attributionurl>http://www.toicon.com/icons/stone_home</attributionurl></work></metadata></svg>
