<?xml version="1.0" encoding="UTF-8"?>
<!-- Generator: Adobe Illustrator 19.2.1, SVG Export Plug-In . SVG Version: 6.00 Build 0)  -->
<svg xmlns="http://www.w3.org/2000/svg" xmlns:xlink="http://www.w3.org/1999/xlink" xmlns:dc="http://purl.org/dc/elements/1.1/" xmlns:cc="http://creativecommons.org/ns#" xmlns:rdf="http://www.w3.org/1999/02/22-rdf-syntax-ns#" version="1.1" id="DESIGNS" x="0px" y="0px" width="32px" height="32px" viewBox="0 0 32 32" style="enable-background:new 0 0 32 32;" xml:space="preserve">
<title property="dc:title">to bounce</title><desc property="dc:description">An icon for "bounce" from the Stone series on to [icon]. Downloaded from http://www.toicon.com/icons/stone_bounce by 71.198.224.222 on 2016-05-26. Licensed CC-BY, see http://toicon.com/license/ for details.</desc>
<path class="stone_een" d="M16,2C8.268,2,2,8.268,2,16s6.268,14,14,14s14-6.268,14-14S23.732,2,16,2z M28.503,16.5h-7.476  c0.127,3.298,1.479,6.283,3.623,8.509c0.192,0.199,0.176,0.52-0.028,0.707c-0.003,0.003-0.006,0.005-0.009,0.008  c-0.201,0.183-0.511,0.169-0.7-0.027c-2.31-2.403-3.76-5.63-3.887-9.196H16.5v12.003c0,0.275-0.223,0.497-0.497,0.497h-0.005  c-0.275,0-0.497-0.223-0.497-0.497V16.5h-3.526c-0.127,3.566-1.577,6.793-3.887,9.196c-0.189,0.196-0.498,0.211-0.7,0.027  c-0.003-0.003-0.006-0.005-0.009-0.008c-0.204-0.186-0.22-0.508-0.028-0.707c2.145-2.226,3.496-5.211,3.623-8.509H3.497  C3.223,16.5,3,16.277,3,16.003v-0.005C3,15.723,3.223,15.5,3.497,15.5h7.476c-0.127-3.298-1.479-6.283-3.623-8.509  c-0.192-0.199-0.176-0.52,0.028-0.707c0.003-0.003,0.006-0.005,0.009-0.008c0.201-0.183,0.511-0.169,0.7,0.027  c2.31,2.403,3.76,5.63,3.887,9.196H15.5V3.497C15.5,3.223,15.723,3,15.997,3h0.005C16.277,3,16.5,3.223,16.5,3.497V15.5h3.526  c0.127-3.566,1.577-6.793,3.887-9.196c0.189-0.196,0.498-0.211,0.7-0.027c0.003,0.003,0.006,0.005,0.009,0.008  c0.204,0.186,0.22,0.508,0.028,0.707c-2.145,2.226-3.496,5.211-3.623,8.509h7.476c0.275,0,0.497,0.223,0.497,0.497v0.005  C29,16.277,28.777,16.5,28.503,16.5z" style="fill: #0B1719;"/>
<metadata><work rdf:about=""><format>image/svg+xml</format><type rdf:resource="http://purl.org/dc/dcmitype/StillImage"/><license rdf:resource="http://creativecommons.org/licenses/by/4.0/"/><attributionname>Shannon E Thomas</attributionname><attributionurl>http://www.toicon.com/icons/stone_bounce</attributionurl></work></metadata></svg>
